<?xml version="1.0" encoding="UTF-8" standalone="no"?>
<svg
   version="1.1"
   id="圖層_1"
   x="0"
   y="0"
   viewBox="0 0 100 100"
   xml:space="preserve"
   sodipodi:docname="home.svg"
   inkscape:version="1.1.2 (0a00cf5339, 2022-02-04)"
   xmlns:inkscape="http://www.inkscape.org/namespaces/inkscape"
   xmlns:sodipodi="http://sodipodi.sourceforge.net/DTD/sodipodi-0.dtd"
   xmlns="http://www.w3.org/2000/svg"
   xmlns:svg="http://www.w3.org/2000/svg"
   xmlns:d="https://loading.io/stock/"><defs
     id="defs13" /><sodipodi:namedview
     id="namedview11"
     pagecolor="#ffffff"
     bordercolor="#666666"
     borderopacity="1.0"
     inkscape:pageshadow="2"
     inkscape:pageopacity="0.0"
     inkscape:pagecheckerboard="0"
     showgrid="false"
     inkscape:zoom="6.32"
     inkscape:cx="49.920886"
     inkscape:cy="50"
     inkscape:window-width="1920"
     inkscape:window-height="1008"
     inkscape:window-x="0"
     inkscape:window-y="0"
     inkscape:window-maximized="1"
     inkscape:current-layer="圖層_1" /><path
     d="M75.9 42.5v41c0 .7-.6 1.3-1.3 1.3H63.1s-.1 0-.1-.1V59.3H36.9v25.4s0 .1-.1.1H25.5c-.7 0-1.3-.6-1.3-1.3v-41l-4.3 4.3v36.7c0 3.1 2.5 5.6 5.6 5.6h11.4c2.4 0 4.4-2 4.4-4.4V63.6h17.5v21.1c0 2.4 2 4.4 4.4 4.4h11.4c3.1 0 5.6-2.5 5.6-5.6V46.8l-4.3-4.3z"
     fill="#f8b26a"
     id="path2"
     style="fill:#00ff00;fill-opacity:1" /><path
     d="M80.2 54.4l3 3c2.1 2.1 5.6 2.1 7.7 0l.1-.1c2.1-2.1 2.1-5.6 0-7.7L80.2 38.9 73.3 32 53.7 12.4c-2-2-5.3-2-7.3 0L26.7 32l-6.9 6.9L9.1 49.6c-2.1 2.1-2.1 5.6 0 7.7l.1.1c2.1 2.1 5.6 2.1 7.7 0l3-3 4.3-4.3L38 36.3l4.3-4.3 7.8-7.8 7.8 7.8 4.3 4.3L76 50.1l4.2 4.3z"
     fill="#c33737"
     id="path4"
     style="fill:#00d600;fill-opacity:1" /><path
     d="M57.8 32L50 24.2 42.2 32l-4.3 4.3-13.8 13.8v33.5c0 .7.6 1.3 1.3 1.3h11.4s.1 0 .1-.1V59.3H63V84.7s0 .1.1.1h11.4c.7 0 1.3-.6 1.3-1.3V50.1L62.1 36.3 57.8 32z"
     fill="#f5e6c8"
     id="path6"
     style="fill:#3afe79;fill-opacity:0" /><metadata
     id="metadata8">
<d:name>home</d:name>
<d:tags>house,building,shelter,landing,home,web application</d:tags>
<d:license>by</d:license>
<d:slug>53jx7x</d:slug>
</metadata></svg>
